PathFileType	4	(X/Y/Z)	Walk1.trc
DataRate	CameraRate	NumFrames	NumMarkers	Units	OrigDataRate	OrigDataStartFrame	OrigNumFrames
200.000000	200.000000	5	61	mm	200.000000	252	638
Frame#	Times		RCAR		LToe		LLFC		LASI		LFA1		RACR1		LUA1		RWRR		LCAR		LElbow		RLFC		LWRR		RTB2		RToe		RFA1		LACR1		RMT1		RTH3		RTH2		RTB3		LTH3		RFHD		RMT5		LTH4		RTB1		STRN		LFHD		LTB1		RTB4		LTB4		LWRU		RCAL		RWRU		LPSI		LTH2		C7		LMT1		RPSI		RMMAL		RLMAL		RASI		RMFC		LTB3		CLAV		LTB2		RElbow		LBHD		RBHD		LMFC		RUA1		RBack		RElbowM		LMMAL		RTH4		LElbowM		LMT5		LCAL		T10		LTH1		LLMAL		RTH1
			X1	Y1	Z1	X2	Y2	Z2	X3	Y3	Z3	X4	Y4	Z4	X5	Y5	Z5	X6	Y6	Z6	X7	Y7	Z7	X8	Y8	Z8	X9	Y9	Z9	X10	Y10	Z10	X11	Y11	Z11	X12	Y12	Z12	X13	Y13	Z13	X14	Y14	Z14	X15	Y15	Z15	X16	Y16	Z16	X17	Y17	Z17	X18	Y18	Z18	X19	Y19	Z19	X20	Y20	Z20	X21	Y21	Z21	X22	Y22	Z22	X23	Y23	Z23	X24	Y24	Z24	X25	Y25	Z25	X26	Y26	Z26	X27	Y27	Z27	X28	Y28	Z28	X29	Y29	Z29	X30	Y30	Z30	X31	Y31	Z31	X32	Y32	Z32	X33	Y33	Z33	X34	Y34	Z34	X35	Y35	Z35	X36	Y36	Z36	X37	Y37	Z37	X38	Y38	Z38	X39	Y39	Z39	X40	Y40	Z40	X41	Y41	Z41	X42	Y42	Z42	X43	Y43	Z43	X44	Y44	Z44	X45	Y45	Z45	X46	Y46	Z46	X47	Y47	Z47	X48	Y48	Z48	X49	Y49	Z49	X50	Y50	Z50	X51	Y51	Z51	X52	Y52	Z52	X53	Y53	Z53	X54	Y54	Z54	X55	Y55	Z55	X56	Y56	Z56	X57	Y57	Z57	X58	Y58	Z58	X59	Y59	Z59	X60	Y60	Z60	X61	Y61	Z61

252	1.26	-501.35	898.38	388.58	-200.78	135.39	-34.176	-575.27	491.78	-118.33	-650.42	1003.6	-106.22	-731.18	1019.8	-282.36	-733.56	1479.6	231	-757.87	1320.7	-220.85	-520.63	939.5	330.83	-697.99	853.39	-300.12	-806.8	1153.8	-264.79	-916.95	503.82	210.3	-687.84	891.17	-243.8	-954.32	265.75	175.17	-873.81	30.501	86.375	-611.81	1048.5	368.87	-737.56	1505.3	-141.51	-922.7	48.516	76.846	-889.26	642.18	226.09	-816.76	715.32	240.76	-986.5	192.89	104.52	-612.58	627.48	-153.3	-592.65	1677.2	115.47	-969.13	26.996	172.21	-644.23	707.56	-170.57	-914.98	349.9	123.65	-607.58	1272.3	48.181	-590.74	1684.9	10.666	-477.89	375.13	-16.576	-950.84	271.09	113.21	-450.32	294.42	-14.168	-767.66	892.39	-292.97	-1144.9	68.62	96.021	-572.22	908.06	396.02	-884.87	1043.7	-41.851	-591.16	732.49	-156.16	-840.81	1532.9	52.552	-251.03	113.85	-18.182	-897.39	1047.8	66.051	-1042.5	114.32	47.518	-1079.3	90.155	137.96	-703.08	1021	210.76	-914.09	502.16	60.475	-419.72	214.07	-13.308	-672.24	1446.3	33.959	-431.91	299.05	-74.311	-735.34	1143.7	368.84	-756.5	1671.2	-12.473	-763.23	1665.2	129.15	-566.95	490.47	24.618	-725.52	1303.9	312.57	-895.61	1406.9	168.45	-763.08	1105.1	282.28	-396.8	114.8	25.454	-876.14	723.59	235.29	-835.73	1128.3	-178.16	-280.5	83.322	-99.772	-456.05	32.949	-31.902	-876.69	1174.9	17.795	-676.81	788.26	-179.93	-407.25	81.725	-72.931	-861.24	810.12	247.27
253	1.265	-496.01	897.43	388.48	-196.91	131.25	-33.924	-568.81	491.11	-118.05	-643.96	1002.8	-106.8	-724.76	1018.4	-282.75	-727.41	1478.8	230.15	-751.48	1319.5	-221.53	-515.13	938.51	330.59	-691.83	851.87	-300.37	-800.22	1152.5	-265.32	-912.8	503.77	210.14	-681.79	889.65	-244.02	-952.2	266	175.31	-873.82	30.488	86.334	-606.24	1047.6	368.4	-731.44	1504.2	-142.38	-922.56	48.498	76.968	-884.4	641.96	225.9	-811.5	714.79	240.44	-985.06	193.36	104.73	-605.54	627.4	-153.17	-586.68	1676.4	114.7	-969.07	26.985	172.21	-637.33	707.33	-170.8	-912.19	349.76	123.65	-601.29	1271.5	47.433	-584.7	1684.2	9.8911	-472.13	374.03	-16.082	-948.73	271.25	113.29	-445.2	293.14	-13.541	-761.41	891.05	-293.46	-1144.5	70.378	96.355	-566.93	907.04	395.36	-878.55	1042.9	-42.308	-584.25	732.37	-156.7	-834.73	1532	51.645	-247.34	110.36	-17.691	-890.98	1047.1	65.556	-1041.7	115.24	47.813	-1078.7	91.349	138.27	-696.63	1020.1	210.26	-909.95	502.02	60.399	-415.22	212.58	-12.518	-666.08	1445.4	33.106	-426.67	297.53	-73.643	-729.65	1143	368.12	-750.45	1670.4	-13.385	-757.28	1664.4	128.24	-560.06	490.28	24.737	-719.58	1303.1	311.76	-889.47	1406.1	167.65	-757.23	1104.4	281.54	-392.99	113.17	26.34	-870.86	723.31	235.1	-829.26	1127.1	-178.75	-277.44	80.099	-99.127	-453.41	32.578	-30.811	-870.33	1173.9	17.338	-670.04	787.95	-180.41	-404.08	80.258	-71.985	-855.55	809.78	247.09
254	1.27	-490.77	896.44	388.39	-193.31	126.73	-33.456	-562.34	490.56	-117.81	-637.47	1001.9	-107.42	-718.32	1017	-283.15	-721.22	1478.1	229.28	-745.1	1318.3	-222.22	-509.7	937.49	330.34	-685.65	850.4	-300.65	-793.63	1151.2	-265.87	-908.52	503.74	209.97	-675.69	888.18	-244.28	-949.99	266.28	175.43	-873.83	30.477	86.291	-600.71	1046.7	367.92	-725.32	1503.1	-143.28	-922.41	48.475	77.089	-879.42	641.73	225.68	-806.14	714.28	240.11	-983.55	193.87	104.94	-598.54	627.37	-153	-580.69	1675.7	113.92	-969	26.983	172.21	-630.44	707.15	-170.96	-909.3	349.64	123.63	-594.96	1270.8	46.641	-578.61	1683.5	9.0993	-466.52	372.95	-15.557	-946.54	271.44	113.37	-440.28	291.87	-12.894	-755.14	889.72	-293.96	-1144.1	72.243	96.717	-561.73	905.99	394.67	-872.21	1042.1	-42.76	-577.36	732.3	-157.2	-828.63	1531.1	50.728	-243.96	106.57	-17.05	-884.53	1046.4	65.064	-1040.9	116.22	48.131	-1078	92.618	138.61	-690.08	1019.3	209.71	-905.7	501.9	60.312	-410.97	211.07	-11.711	-659.9	1444.6	32.226	-421.52	296.03	-72.918	-723.99	1142.3	367.38	-744.36	1669.6	-14.314	-751.3	1663.6	127.32	-553.29	490.13	24.819	-713.61	1302.4	310.93	-883.3	1405.3	166.85	-751.42	1103.6	280.77	-389.52	111.49	27.203	-865.49	723.04	234.89	-822.76	1125.8	-179.34	-274.67	76.721	-98.392	-451.15	32.354	-29.852	-863.93	1173	16.88	-663.28	787.71	-180.87	-401.18	78.844	-71.078	-849.77	809.45	246.88
255	1.275	-485.63	895.4	388.3	-189.93	121.89	-32.785	-555.87	490.13	-117.61	-630.96	1001.2	-108.08	-711.86	1015.7	-283.56	-714.98	1477.4	228.39	-738.72	1317.1	-222.94	-504.36	936.42	330.1	-679.43	848.97	-300.95	-787.03	1150	-266.43	-904.1	503.71	209.79	-669.56	886.75	-244.56	-947.68	266.6	175.55	-873.83	30.466	86.246	-595.23	1045.8	367.44	-719.21	1502.1	-144.2	-922.26	48.448	77.208	-874.31	641.51	225.44	-800.66	713.77	239.74	-981.97	194.43	105.14	-591.59	627.4	-152.79	-574.65	1675.1	113.12	-968.91	26.991	172.21	-623.6	707.04	-171.07	-906.3	349.54	123.6	-588.59	1270.1	45.802	-572.5	1682.8	8.2928	-461.04	371.91	-15.016	-944.26	271.67	113.44	-435.54	290.64	-12.243	-748.85	888.42	-294.46	-1143.5	74.224	97.099	-556.63	904.92	393.99	-865.87	1041.5	-43.207	-570.52	732.27	-157.66	-822.5	1530.3	49.802	-240.84	102.53	-16.27	-878.06	1045.7	64.582	-1040	117.25	48.467	-1077.3	93.97	138.97	-683.43	1018.4	209.11	-901.32	501.78	60.215	-406.93	209.58	-10.903	-653.68	1443.8	31.318	-416.46	294.59	-72.151	-718.34	1141.7	366.62	-738.24	1668.9	-15.258	-745.28	1662.9	126.38	-546.65	490.02	24.857	-707.62	1301.7	310.08	-877.09	1404.6	166.04	-745.63	1102.9	279.98	-386.34	109.81	28.027	-860	722.77	234.67	-816.25	1124.6	-179.95	-272.13	73.239	-97.583	-449.22	32.293	-29.038	-857.5	1172.2	16.424	-656.54	787.52	-181.3	-398.51	77.518	-70.228	-843.89	809.11	246.66
256	1.28	-480.59	894.33	388.21	-186.74	116.82	-31.938	-549.39	489.85	-117.47	-624.44	1000.6	-108.78	-705.39	1014.4	-283.99	-708.71	1476.8	227.48	-732.34	1316	-223.68	-499.1	935.32	329.87	-673.19	847.61	-301.28	-780.41	1148.8	-266.99	-899.53	503.69	209.59	-663.4	885.38	-244.86	-945.28	266.95	175.66	-873.84	30.455	86.199	-589.8	1044.9	366.95	-713.1	1501.1	-145.16	-922.11	48.414	77.322	-869.07	641.29	225.18	-795.08	713.29	239.35	-980.31	195.04	105.34	-584.74	627.49	-152.56	-568.57	1674.5	112.3	-968.8	27.013	172.2	-616.84	706.99	-171.13	-903.19	349.46	123.56	-582.17	1269.6	44.918	-566.34	1682.2	7.4738	-455.7	370.94	-14.476	-941.89	271.94	113.5	-430.96	289.47	-11.605	-742.54	887.17	-294.97	-1143	76.331	97.492	-551.62	903.84	393.32	-859.52	1040.9	-43.644	-563.74	732.3	-158.09	-816.33	1529.6	48.868	-237.94	98.321	-15.38	-871.56	1045.1	64.116	-1039	118.35	48.816	-1076.5	95.411	139.34	-676.68	1017.6	208.44	-896.81	501.68	60.106	-403.06	208.16	-10.116	-647.44	1443.1	30.382	-411.47	293.24	-71.362	-712.7	1141	365.84	-732.07	1668.2	-16.218	-739.23	1662.2	125.43	-540.19	489.97	24.846	-701.6	1301.1	309.21	-870.86	1404	165.23	-739.86	1102.3	279.17	-383.41	108.16	28.796	-854.41	722.51	234.42	-809.71	1123.4	-180.56	-269.79	69.703	-96.722	-447.56	32.403	-28.378	-851.05	1171.4	15.975	-649.86	787.39	-181.72	-396.02	76.305	-69.45	-837.93	808.79	246.41
